<svg width="1080" height="301" viewBox="0 0 1080 301" fill="none" xmlns="http://www.w3.org/2000/svg">
<g clip-path="url(#clip0_1_2)">
<path d="M316.759 -0.122223H7.19814C5.28905 -0.122223 3.45806 0.58231 2.10867 1.83808C0.757842 3.09251 0 4.79464 0 6.57074V294.348C0 296.123 0.757842 297.825 2.10867 299.079C3.45806 300.335 5.28905 301.04 7.19814 301.04H316.759C318.67 301.04 320.501 300.335 321.85 299.079C323.201 297.825 323.959 296.123 323.959 294.348V6.57074C323.959 4.79464 323.201 3.09251 321.85 1.83808C320.501 0.58231 318.67 -0.122223 316.759 -0.122223ZM215.972 193.96C215.972 195.735 215.214 197.437 213.864 198.693C212.514 199.947 210.683 200.653 208.774 200.653H115.185C113.276 200.653 111.445 199.947 110.094 198.693C108.745 197.437 107.987 195.735 107.987 193.96V106.957C107.987 105.182 108.745 103.48 110.094 102.226C111.445 100.97 113.276 100.266 115.185 100.266H208.774C210.683 100.266 212.514 100.97 213.864 102.226C215.214 103.48 215.972 105.182 215.972 106.957V193.96Z" fill="white"/>
<path d="M964.858 100.276H871.271C867.295 100.276 864.071 103.272 864.071 106.968V193.971C864.071 197.667 867.295 200.664 871.271 200.664H964.858C968.834 200.664 972.058 197.667 972.058 193.971V106.968C972.058 103.272 968.834 100.276 964.858 100.276Z" fill="white"/>
<path d="M856.828 -0.114136H763.241C759.265 -0.114136 756.041 2.88143 756.041 6.57883V93.5806C756.041 97.2767 759.265 100.274 763.241 100.274H856.828C860.805 100.274 864.028 97.2767 864.028 93.5806V6.57883C864.028 2.88143 860.805 -0.114136 856.828 -0.114136Z" fill="white"/>
<path d="M1072.8 -0.114136H979.213C975.237 -0.114136 972.013 2.88143 972.013 6.57883V93.5806C972.013 97.2767 975.237 100.274 979.213 100.274H1072.8C1076.78 100.274 1080 97.2767 1080 93.5806V6.57883C1080 2.88143 1076.78 -0.114136 1072.8 -0.114136Z" fill="white"/>
<path d="M856.828 200.659H763.241C759.265 200.659 756.041 203.654 756.041 207.35V294.353C756.041 298.05 759.265 301.046 763.241 301.046H856.828C860.805 301.046 864.028 298.05 864.028 294.353V207.35C864.028 203.654 860.805 200.659 856.828 200.659Z" fill="white"/>
<path d="M1072.8 200.659H979.213C975.237 200.659 972.013 203.654 972.013 207.35V294.353C972.013 298.05 975.237 301.046 979.213 301.046H1072.8C1076.78 301.046 1080 298.05 1080 294.353V207.35C1080 203.654 1076.78 200.659 1072.8 200.659Z" fill="white"/>
<path d="M694.713 -0.114136H601.125C597.149 -0.114136 593.925 2.88143 593.925 6.57883V93.5806C593.925 97.2767 597.149 100.274 601.125 100.274H694.713C698.689 100.274 701.912 97.2767 701.912 93.5806V6.57883C701.912 2.88143 698.689 -0.114136 694.713 -0.114136Z" fill="white"/>
<path d="M694.713 200.659H601.125C597.149 200.659 593.925 203.654 593.925 207.35V294.353C593.925 298.05 597.149 301.046 601.125 301.046H694.713C698.689 301.046 701.912 298.05 701.912 294.353V207.35C701.912 203.654 698.689 200.659 694.713 200.659Z" fill="white"/>
<path d="M593.925 106.882C593.925 105.107 593.166 103.405 591.817 102.151C590.466 100.895 588.635 100.19 586.726 100.19H485.939V6.57074C485.939 4.79464 485.179 3.09251 483.83 1.83808C482.479 0.58231 480.648 -0.122223 478.739 -0.122223H385.151C383.241 -0.122223 381.41 0.58231 380.06 1.83808C378.71 3.09251 377.952 4.79464 377.952 6.57074V294.198C377.952 295.972 378.71 297.674 380.06 298.929C381.41 300.185 383.241 300.889 385.151 300.889H478.739C480.648 300.889 482.479 300.185 483.83 298.929C485.179 297.674 485.939 295.972 485.939 294.198V200.578H586.726C588.635 200.578 590.466 199.872 591.817 198.618C593.166 197.362 593.925 195.66 593.925 193.885V106.882Z" fill="white"/>
</g>
<defs>
<clipPath id="clip0_1_2">
<rect width="1080" height="301" fill="white"/>
</clipPath>
</defs>
</svg>
